<svg xmlns="http://www.w3.org/2000/svg" viewBox="0 0 491.51 122.82"><defs><style>.cls-1{fill:#ea5557;}</style></defs><g id="Calque_2" data-name="Calque 2"><g id="logo_blanc" data-name="logo blanc"><path class="cls-1" d="M71.4,8.16l.36,18.6V69.48l-.36,18.6a2,2,0,0,1-2,2h-7.2a2,2,0,0,1-2-2l-.36-18.6V38.28l-17.52,34a3.42,3.42,0,0,1-3,1.92H33a3.29,3.29,0,0,1-3-1.92L12,37.32V69.48l-.36,18.6a2,2,0,0,1-2,2H2.4a2,2,0,0,1-2-2L0,69.48V26.76L.36,8.16a2.1,2.1,0,0,1,2-2H9.6a2,2,0,0,1,1.92,1.32l24.6,53.4L60.24,7.44a1.73,1.73,0,0,1,1.92-1.32h7.2A2.1,2.1,0,0,1,71.4,8.16Z"/><path class="cls-1" d="M143.88,87.72a2.44,2.44,0,0,1-2.52,2.4H135a2.58,2.58,0,0,1-2.4-2.4l-.12-5.28a.34.34,0,0,0-.6-.24c-3.24,4.44-10.92,7.92-17.16,7.92A29.64,29.64,0,1,1,144.12,59,234.85,234.85,0,0,1,143.88,87.72Zm-11.76-25A17.61,17.61,0,1,0,117,78,17.6,17.6,0,0,0,132.12,62.76Z"/><path class="cls-1" d="M193.79,42.12l-4.44,4.08a2.16,2.16,0,0,1-2.64-.12c-7.79-5.64-16.79-1-16.79,7.68l-.13,33.84a2.45,2.45,0,0,1-2.51,2.52h-6a2.46,2.46,0,0,1-2.52-2.52l.6-40.32c0-6.24-1.08-9.48-1.44-12.24a1.89,1.89,0,0,1,1.92-2.16l7.68-1.32a2.34,2.34,0,0,1,2,1.44,6.07,6.07,0,0,1,.36,1.32,20.9,20.9,0,0,1,24,4.68A2.14,2.14,0,0,1,193.79,42.12Z"/><path class="cls-1" d="M379.79,42.12l-4.44,4.08a2.16,2.16,0,0,1-2.64-.12c-7.79-5.64-16.79-1-16.79,7.68l-.13,33.84a2.45,2.45,0,0,1-2.51,2.52h-6a2.46,2.46,0,0,1-2.52-2.52l.6-40.32c0-6.24-1.08-9.48-1.44-12.24a1.89,1.89,0,0,1,1.92-2.16l7.68-1.32a2.34,2.34,0,0,1,2,1.44,6.07,6.07,0,0,1,.36,1.32,20.9,20.9,0,0,1,24,4.68A2.14,2.14,0,0,1,379.79,42.12Z"/><path class="cls-1" d="M250.19,84.24a19.09,19.09,0,0,1,8.64,16.56c0,21.23-31.68,27.71-49.92,16.8a2.13,2.13,0,0,1-.48-3l3.48-4.92a2.06,2.06,0,0,1,2.52-.6c12.24,5.64,33.36,2.4,33.36-8.28,0-9.72-12.48-10.68-17.88-10.68a29.62,29.62,0,1,1,20.16-7.68A1.13,1.13,0,0,0,250.19,84.24Zm-22.32-6a17.85,17.85,0,1,0-15.36-15.36A17.91,17.91,0,0,0,227.87,78.24Z"/><path class="cls-1" d="M330.71,87.72a2.44,2.44,0,0,1-2.52,2.4h-6.36a2.58,2.58,0,0,1-2.4-2.4l-.12-5.28a.34.34,0,0,0-.6-.24c-3.24,4.44-10.92,7.92-17.16,7.92A29.64,29.64,0,1,1,331,59,234.85,234.85,0,0,1,330.71,87.72ZM319,62.76A17.61,17.61,0,1,0,303.83,78,17.6,17.6,0,0,0,319,62.76Z"/><path class="cls-1" d="M444.35,58.56c-.12,3.36-3.72,6-7.08,6H400.55a1.08,1.08,0,0,0-1.08,1.32c2.28,9.24,10,12.72,18.24,12.72a22.65,22.65,0,0,0,14.16-5.76,2.25,2.25,0,0,1,3.12,0l4.8,4.68a2.18,2.18,0,0,1,0,3.24,30.67,30.67,0,0,1-22.32,9.36c-18.6,0-32.4-15.36-29.88-34.32,2.16-16.56,16.8-26.4,33.36-24.72,13.44,1.44,23.52,14.4,23.52,24.72C444.47,55.8,444.47,57,444.35,58.56Zm-43.92-4.32a1.17,1.17,0,0,0,1.08,1.56h30.84a1.17,1.17,0,0,0,1.08-1.56c-1.8-6.12-6.12-13.08-15.72-13.08A17.8,17.8,0,0,0,400.43,54.24Z"/><path class="cls-1" d="M491.51,34V41a2.21,2.21,0,0,1-2,2.16l-11.88.36v25.2l-.48,19.32a2.1,2.1,0,0,1-2,2h-7a2.13,2.13,0,0,1-2.16-2l-.36-19.32V43.56l-11.88-.36a2.1,2.1,0,0,1-2-2V34a2.13,2.13,0,0,1,2-2.16l11.88-.36V21.24L466,2a2.05,2.05,0,0,1,2.16-2h7a2,2,0,0,1,2,2l.48,19.2v10.2l11.88.36A2.21,2.21,0,0,1,491.51,34Z"/></g></g></svg>